# xmcd
#
# Track frame offsets:
#	150
#	13121
#	25961
#	39876
#	50992
#	62555
#	75243
#	89602
#	103357
#	116628
#	130073
#	144036
#	157661
#	168928
#	180308
#	192372
#	205425
#	218564
#	231823
#	242759
#
# Disc length: 3403 seconds
# Revision: 0
# Processed by: cddbd v1.5.2PL0 Copyright (c) Steve Scherf et al.
# Submitted via: dBpowerAMP V12.0
#
DISCID=050d4914
DTITLE=Muddy Waters - The Absolutely Essential Collection
DYEAR=2016
DGENRE=Blues
TTITLE0=I Just Want to Make Love to You
TTITLE1=Got My Mojo Working
TTITLE2=I'm Ready
TTITLE3=Gone to Main Street
TTITLE4=She's Alright
TTITLE5=Turn the Lamp Down Low (Baby Please Don't Go)
TTITLE6=Blow, Wind, Blow
TTITLE7=Mad Love (I Want You to Love Me)
TTITLE8=Oh Yeah
TTITLE9=I Don't Know Why
TTITLE10=This Pain
TTITLE11=Young Fashioned Ways
TTITLE12=I Want to be Loved
TTITLE13=Sugar Sweet (I Can't Call Her Sugar)
TTITLE14=Trouble No More
TTITLE15=Forty Days and Forty Nights
TTITLE16=All Aboard
TTITLE17=Don't Go No Further
TTITLE18=Diamonds at Your Feet
TTITLE19=Good News
EXTD=
EXTT0=
EXTT1=
EXTT2=
EXTT3=
EXTT4=
EXTT5=
EXTT6=
EXTT7=
EXTT8=
EXTT9=
EXTT10=
EXTT11=
EXTT12=
EXTT13=
EXTT14=
EXTT15=
EXTT16=
EXTT17=
EXTT18=
EXTT19=
PLAYORDER=
